<svg width="513" height="512" viewBox="0 0 513 512" fill="none" xmlns="http://www.w3.org/2000/svg">
<path fill-rule="evenodd" clip-rule="evenodd" d="M54.3967 0C24.6315 0 0.501953 25.1901 0.501953 56.2637V455.736C0.501953 486.81 24.6315 512 54.3967 512H458.607C488.373 512 512.502 486.81 512.502 455.736V56.2637C512.502 25.1901 488.373 0 458.607 0H54.3967ZM286.076 177.929C294.534 169.305 298.763 158.806 298.763 146.432C298.763 134.059 294.534 123.56 286.076 114.936C277.617 106.312 267.32 102 255.184 102C242.681 102 232.2 106.312 223.741 114.936C215.283 123.56 211.054 134.059 211.054 146.432C211.054 158.806 215.283 169.305 223.741 177.929C232.2 186.553 242.681 190.865 255.184 190.865C267.32 190.865 277.617 186.553 286.076 177.929ZM223.189 270.652C214.731 279.276 210.502 289.775 210.502 302.149C210.502 313.772 214.363 323.521 222.086 331.395C229.809 339.269 237.348 343.394 244.703 343.769C247.645 343.769 248.932 345.269 248.565 348.268C247.461 355.018 245.071 361.579 241.393 367.954C237.716 374.328 233.119 379.577 227.603 383.702C217.673 391.951 215.834 399.075 222.086 405.074C228.706 411.449 237.164 411.636 247.461 405.637C266.217 395.138 280.559 379.952 290.489 360.08C300.786 340.207 304.463 320.147 301.521 299.899C300.05 289.025 294.902 279.276 286.076 270.652C277.249 261.653 266.952 257.154 255.184 257.154C242.681 257.154 232.016 261.653 223.189 270.652Z" fill="black"/>
</svg>
